# xmcd
#
# Track frame offsets: 
#        150
#        14428
#        34638
#        48512
#        62355
#        79179
#        95753
#        110212
#        123551
#        143805
#
# Disc length: 2137 seconds
#
# Revision: 0
# Processed by: cddbd v1.5.1PL0 Copyright (c) Steve Scherf et al.
# Submitted via: ExactAudioCopy v0.95b2
#
DISCID=8808570a
DTITLE=Boxcar Preachers - Spindletop Strike!
DYEAR=2002
DGENRE=Bluegrass
TTITLE0=Vasectomy Song
TTITLE1=Influenza
TTITLE2=Can't Get That Stuff No Mo'
TTITLE3=Jessie's Bones
TTITLE4=God Moves On The Water
TTITLE5=Butterfly Reel
TTITLE6=Boxcar Rag
TTITLE7=Are You Really That High?
TTITLE8=Fire In The Barn
TTITLE9=Please See Me
EXTD=
EXTT0=
EXTT1=
EXTT2=
EXTT3=
EXTT4=
EXTT5=
EXTT6=
EXTT7=
EXTT8=
EXTT9=
PLAYORDER=
